<?xml version="1.0" standalone="no"?>
<!DOCTYPE svg PUBLIC "-//W3C//DTD SVG 20010904//EN"
 "http://www.w3.org/TR/2001/REC-SVG-20010904/DTD/svg10.dtd">
<svg version="1.0" xmlns="http://www.w3.org/2000/svg"
 width="1920.000000pt" height="1920.000000pt" viewBox="0 0 1920.000000 1920.000000"
 preserveAspectRatio="xMidYMid meet">
<metadata>
Created by potrace 1.11, written by Peter Selinger 2001-2013
</metadata>
<g transform="translate(0.000000,1920.000000) scale(0.100000,-0.100000)"
fill="#000000" stroke="none">
<path d="M4967 13579 c-11 -6 -30 -9 -45 -6 -32 6 -67 -9 -86 -38 -8 -13 -30
-25 -49 -29 -23 -4 -38 -14 -45 -31 -6 -13 -28 -33 -49 -42 -29 -14 -41 -28
-51 -57 -17 -54 -26 -62 -77 -75 -58 -15 -80 -45 -64 -90 9 -24 8 -39 -2 -62
-10 -26 -10 -32 2 -39 11 -7 10 -13 -9 -30 -26 -24 -28 -43 -7 -60 13 -11 12
-16 -11 -42 -87 -105 -84 -208 7 -208 44 0 84 25 139 87 l44 49 31 -38 c16
-20 43 -53 59 -73 l28 -35 -30 -34 c-28 -32 -49 -87 -67 -175 -5 -21 -26 -55
-56 -86 -26 -28 -53 -63 -58 -79 -15 -37 -14 -73 2 -79 9 -3 7 -9 -5 -23 -28
-32 -51 -95 -39 -107 7 -7 16 -5 29 7 16 14 15 9 -5 -33 -14 -27 -23 -61 -21
-77 3 -26 5 -24 42 35 21 34 40 60 42 58 3 -2 -2 -24 -10 -48 -17 -48 -22
-159 -7 -144 5 6 11 19 14 30 3 13 5 9 6 -12 1 -41 15 -49 35 -21 13 18 16 19
16 5 0 -33 18 -16 25 23 8 46 17 50 33 15 17 -37 15 -66 -8 -100 -11 -16 -20
-39 -20 -50 -1 -11 -7 -31 -14 -45 -12 -21 -26 -26 -102 -37 -130 -19 -212
-49 -258 -95 l-38 -38 -397 0 -396 0 -160 -176 c-88 -97 -163 -186 -167 -197
-4 -12 -14 -274 -23 -582 l-15 -560 -507 -1235 -507 -1235 -589 -874 c-324
-480 -593 -888 -598 -905 -12 -42 -11 -133 2 -181 14 -50 73 -110 123 -124 28
-7 101 -7 250 0 144 7 2865 6 8523 -2 7203 -11 8314 -11 8329 2 30 24 101 142
119 197 l17 52 -32 57 c-18 32 -259 443 -535 913 l-502 855 -462 1224 -462
1225 -52 591 -53 591 -136 165 -137 166 -2468 6 c-1357 4 -3731 10 -5275 14
l-2806 6 -13 24 c-30 56 -166 106 -338 124 l-109 12 12 31 c13 36 75 156 80
156 1 0 17 -7 35 -16 37 -18 50 -13 30 13 -12 14 -11 14 14 -2 32 -21 47 -13
25 12 -30 35 -33 48 -7 30 13 -9 32 -17 42 -17 16 0 14 5 -12 29 -17 16 -31
35 -31 42 0 10 3 10 12 1 7 -7 23 -12 37 -12 23 0 23 1 8 18 -26 29 -20 32 20
11 21 -10 45 -19 55 -19 29 0 29 17 0 29 -31 13 -86 60 -79 68 3 2 14 0 25 -6
34 -18 102 -11 102 10 0 4 -7 6 -15 3 -28 -11 -93 42 -106 86 -11 36 -10 51
10 120 35 118 28 193 -27 304 -34 69 -54 95 -95 127 -29 23 -53 44 -55 48 -1
4 7 18 18 31 14 17 19 32 15 48 -4 17 -2 22 7 19 46 -19 201 -67 217 -67 27 0
134 74 164 114 21 26 31 32 52 29 29 -6 55 11 55 36 0 10 13 27 30 39 31 23
70 89 70 118 0 11 -6 15 -20 11 -18 -5 -19 -3 -5 24 21 39 19 49 -10 49 -14 0
-25 -4 -25 -10 0 -5 -4 -10 -10 -10 -5 0 -10 7 -10 15 0 28 -39 17 -46 -12
-15 -65 -46 -122 -67 -125 -15 -2 -26 -14 -33 -37 -7 -21 -23 -41 -40 -50 -16
-9 -45 -26 -65 -39 -43 -26 -63 -27 -108 -3 -32 17 -34 21 -35 77 -1 54 -3 60
-28 72 -31 15 -34 26 -13 62 20 35 19 44 -11 80 -24 28 -25 34 -14 55 7 13 10
34 7 47 -3 13 -11 44 -17 71 -16 66 -58 92 -103 66z m69 -34 c10 -16 14 -34
10 -50 -4 -14 -2 -25 3 -25 22 0 30 -36 15 -64 -19 -39 -18 -49 11 -74 28 -25
30 -37 10 -72 -21 -37 -18 -59 10 -70 14 -5 30 -21 35 -35 13 -34 13 -38 -3
-59 -17 -23 -38 -13 -114 52 -47 40 -56 44 -88 38 -22 -4 -35 -3 -35 4 0 5 8
10 19 10 29 0 68 37 82 78 7 20 19 47 27 60 14 21 13 25 -7 46 -12 13 -26 36
-30 52 -7 25 -12 29 -42 27 -19 -1 -40 -9 -49 -20 -8 -11 -28 -28 -43 -37 -15
-10 -30 -28 -33 -41 -4 -17 -11 -21 -30 -17 -30 6 -32 -15 -4 -51 11 -14 20
-33 20 -43 0 -31 -40 -64 -77 -64 -62 0 -96 -23 -147 -99 -27 -39 -55 -71 -63
-71 -24 0 -27 30 -4 54 24 25 27 42 9 49 -10 3 -10 8 1 21 11 14 12 24 2 57
-11 35 -10 43 4 59 9 10 30 21 47 24 52 10 74 31 87 80 11 44 37 66 61 51 5
-3 10 1 10 10 0 8 7 18 15 21 8 4 15 12 15 19 0 11 25 24 55 29 6 0 25 16 43
34 27 28 37 33 62 27 16 -3 37 -2 47 4 29 17 52 13 69 -14z m-58 -144 c26 -56
26 -61 9 -61 -8 0 -13 -13 -13 -35 0 -20 -8 -43 -19 -56 -26 -28 -65 -43 -79
-29 -5 5 -17 10 -25 10 -14 -1 -13 -3 2 -14 11 -9 17 -27 17 -54 0 -24 9 -56
20 -74 31 -52 26 -63 -18 -36 -74 44 -83 53 -91 89 -7 31 -5 41 15 65 29 36
30 58 3 95 l-20 29 22 -2 c16 -2 24 3 28 19 6 24 95 103 115 103 6 -1 21 -22
34 -49z m551 -141 c5 0 20 12 35 26 29 29 33 23 11 -16 -16 -29 -20 -70 -5
-70 5 0 14 8 19 18 6 9 11 12 11 6 0 -17 -42 -75 -70 -95 -18 -14 -33 -17 -51
-11 l-26 7 19 55 c11 30 25 73 31 95 11 37 12 38 15 12 2 -15 7 -27 11 -27z
m-553 -135 c2 -22 -1 -26 -17 -22 -10 3 -22 1 -25 -4 -8 -14 -34 17 -34 41 0
27 39 43 59 25 8 -8 15 -26 17 -40z m-216 25 c14 -26 5 -40 -24 -40 -12 0 -27
-5 -33 -11 -8 -8 -15 -4 -27 12 -22 33 -20 43 6 25 32 -23 58 -20 58 5 0 17
-5 20 -25 17 -14 -3 -25 -1 -25 3 0 19 59 9 70 -11z m682 -12 c2 -28 8 -34 31
-36 19 -2 27 -9 27 -23 0 -16 -6 -20 -27 -17 -35 4 -68 48 -59 82 9 36 24 32
28 -6z m-784 -67 c-19 -6 -202 -190 -196 -196 3 -3 34 22 69 55 56 54 64 59
71 41 4 -11 16 -25 28 -31 20 -11 20 -12 3 -41 -21 -36 -90 -95 -128 -109 -39
-15 -75 10 -75 51 0 40 32 99 72 135 19 16 45 45 59 64 14 19 38 52 53 74 l29
38 13 -38 c10 -29 10 -40 2 -43z m442 -6 c14 -4 46 -18 72 -31 26 -13 54 -24
63 -24 9 0 47 18 86 40 39 22 74 40 79 40 17 0 20 -34 5 -56 -21 -33 -112
-103 -142 -110 -16 -4 -60 5 -121 25 -124 41 -127 43 -111 69 11 17 11 26 -1
49 -8 15 -21 34 -27 41 -30 31 -9 30 30 -1 23 -19 53 -38 67 -42z m-310 20
c10 -12 9 -15 -6 -15 -11 0 -30 3 -44 7 l-25 7 25 7 c37 10 36 10 50 -6z m214
-17 c-4 -6 0 -14 7 -19 11 -7 10 -13 -8 -31 -12 -12 -26 -19 -30 -14 -4 4 -1
11 6 16 12 7 12 11 -2 24 -20 20 -27 20 -27 1 0 -8 4 -15 10 -15 5 0 7 -7 3
-15 -11 -29 -35 -12 -38 27 -2 36 -1 37 34 40 43 4 54 0 45 -14z m-334 -47 c0
-16 7 -34 15 -41 19 -16 10 -30 -20 -30 -47 0 -64 57 -27 88 24 19 32 15 32
-17z m176 13 c-4 -10 1 -22 11 -30 15 -11 14 -12 -13 -2 -17 6 -40 8 -50 4
-18 -7 -18 -9 5 -27 27 -22 14 -24 -49 -5 -48 14 -67 34 -57 60 5 13 21 16 83
16 66 0 75 -2 70 -16z m149 -54 c13 0 16 -3 9 -10 -12 -12 -74 -2 -74 12 0 6
10 8 23 4 12 -3 31 -6 42 -6z m-89 -15 c10 -8 29 -15 41 -15 16 0 21 -4 17
-15 -4 -8 -1 -22 6 -29 15 -19 -5 -60 -26 -52 -8 3 -23 0 -34 -6 -10 -7 -22
-9 -26 -5 -10 10 16 37 37 37 21 0 34 16 20 24 -5 4 -12 0 -14 -6 -3 -8 -6 -6
-6 5 -1 10 -12 29 -26 43 -36 36 -29 49 11 19z m-123 -15 c10 0 16 -4 12 -9
-3 -5 -1 -12 4 -16 6 -3 2 -14 -9 -25 -25 -25 -30 -25 -30 -2 -1 16 -1 16 -14
0 -17 -23 -29 -23 -52 3 -18 20 -18 21 6 40 14 11 34 17 45 14 11 -3 28 -5 38
-5z m100 -37 c6 -31 -24 -70 -44 -57 -9 5 -6 10 9 15 23 9 29 33 12 44 -5 3
-10 -1 -10 -9 0 -30 -25 -16 -26 14 -2 51 49 45 59 -7z m127 17 c0 -5 -7 -10
-15 -10 -8 0 -15 5 -15 10 0 6 7 10 15 10 8 0 15 -4 15 -10z m-195 -69 c-9
-16 -25 -3 -18 15 4 10 9 12 15 6 6 -6 7 -15 3 -21z m-31 -17 c5 -12 14 -14
37 -9 19 4 41 2 54 -5 16 -9 32 -9 60 -1 46 12 55 8 55 -28 0 -20 -8 -32 -27
-42 -16 -8 -28 -10 -30 -4 -2 6 -8 17 -13 25 -14 22 -23 5 -10 -19 10 -20 8
-21 -34 -21 -40 0 -49 5 -93 50 -26 28 -49 55 -51 60 -6 17 46 11 52 -6z m268
-51 c47 -43 101 -148 118 -228 11 -53 10 -64 -25 -193 -9 -35 -14 -70 -11 -77
3 -8 1 -17 -4 -20 -14 -9 9 -51 36 -66 36 -19 22 -22 -20 -5 -20 8 -36 13 -36
10 0 -11 23 -50 44 -73 20 -23 19 -23 -15 2 -47 35 -52 34 -34 -9 l15 -36 -26
17 c-27 17 -27 17 -22 -9 4 -21 3 -24 -9 -15 -21 18 -25 4 -9 -34 21 -51 -4
-39 -45 21 l-31 47 7 -35 c4 -19 13 -45 21 -57 8 -13 11 -23 6 -23 -4 0 -21
27 -37 60 -28 54 -55 78 -55 47 0 -7 -9 -30 -20 -52 -11 -22 -21 -46 -22 -55
-1 -8 -4 10 -8 40 l-6 55 -21 -46 c-26 -57 -45 -73 -37 -31 4 19 -1 43 -16 72
-20 39 -21 48 -11 99 20 93 24 252 9 281 -26 48 -40 30 -60 -70 -18 -91 -18
-125 -2 -215 l7 -40 -22 19 c-32 29 -36 13 -13 -49 17 -43 18 -55 7 -55 -7 0
-16 -14 -20 -30 -4 -17 -11 -27 -17 -24 -6 4 -15 0 -20 -7 -6 -10 -8 -2 -6 24
4 34 2 38 -15 33 -16 -4 -18 -1 -12 17 34 112 25 139 -25 80 -30 -35 -29 -29
11 34 19 31 3 41 -32 21 l-29 -17 14 27 c8 15 35 54 60 86 25 33 46 63 46 67
0 22 -24 17 -50 -10 -59 -58 -29 16 35 87 39 43 50 65 67 129 32 126 63 167
110 142 30 -16 126 -5 157 19 18 14 26 29 26 51 0 17 1 31 2 31 2 0 22 -17 45
-37z m-275 -452 c-4 -58 -11 -119 -15 -136 l-9 -30 -11 40 c-15 50 -15 99 -1
167 6 29 13 64 16 78 4 23 5 23 15 6 7 -13 9 -57 5 -125z m7 -328 c-6 -39 -4
-43 15 -43 32 0 39 -45 12 -74 -16 -17 -21 -35 -21 -79 0 -52 -3 -59 -25 -69
-19 -8 -31 -8 -50 0 -29 13 -31 28 -10 68 8 16 15 37 15 46 0 9 10 33 21 53
20 34 21 41 10 93 -7 31 -19 74 -26 95 -11 31 -11 37 1 37 8 0 14 6 14 13 0 6
12 -12 25 -42 21 -43 24 -63 19 -98z m196 -6 c0 -9 -19 -54 -42 -98 -39 -74
-43 -87 -43 -156 0 -69 -2 -77 -25 -93 -14 -10 -42 -20 -62 -23 -38 -6 -38 -6
-38 30 0 25 9 45 30 70 17 18 30 42 30 52 0 10 8 38 19 62 10 24 24 69 31 99
7 30 23 76 34 101 l21 45 22 -35 c12 -20 23 -44 23 -54z m-121 -47 l0 -35 -14
26 c-15 28 -9 82 6 57 5 -7 9 -29 8 -48z m-27 -102 c-16 -34 -20 -38 -21 -20
-1 21 29 75 37 67 2 -2 -5 -23 -16 -47z m-100 -131 c23 -1 33 -6 27 -11 -5 -6
-9 -29 -9 -53 l0 -43 53 0 c45 0 58 5 86 31 31 28 33 33 27 76 l-6 46 83 -6
c159 -13 321 -70 345 -122 23 -50 -48 -100 -195 -137 -77 -20 -114 -23 -303
-23 -240 0 -326 13 -437 65 -75 35 -95 65 -69 104 29 46 144 90 268 104 54 6
65 5 78 -11 9 -11 30 -19 52 -20z m-1092 -113 c0 -3 -58 -76 -128 -162 -70
-86 -131 -162 -135 -168 -4 -7 27 -269 67 -583 l74 -571 -445 -1228 c-303
-839 -455 -1246 -480 -1286 -20 -33 -271 -420 -558 -861 -294 -452 -529 -823
-539 -850 -25 -74 -21 -181 8 -238 20 -41 21 -47 7 -51 -9 -3 -116 -6 -238 -8
-211 -3 -223 -2 -249 18 -60 44 -69 67 -69 172 l0 97 592 875 591 875 510
1241 510 1241 16 573 17 573 132 144 c73 80 142 158 155 174 22 27 28 29 93
29 38 0 69 -3 69 -6z m633 -31 c-4 -21 -8 -54 -8 -73 0 -33 3 -36 90 -82 99
-52 243 -101 349 -119 104 -17 314 -7 401 21 80 25 187 77 251 121 41 28 44
33 44 74 0 24 -4 55 -9 68 l-10 25 1852 -4 c1019 -2 2235 -7 2704 -10 l851 -6
6 -32 c3 -17 8 -91 12 -165 l7 -133 -3439 7 c-1892 4 -3555 10 -3696 14 l-256
6 131 162 132 163 298 0 298 0 -8 -37z m6751 -15 c3 -18 10 -78 16 -133 6 -55
13 -115 16 -132 l5 -33 -109 0 -109 0 -7 103 c-4 56 -9 130 -12 165 l-6 62
100 0 101 0 5 -32z m3135 25 l1623 -6 119 -149 120 -148 -618 -1 c-340 -1
-1448 -4 -2463 -8 -1015 -3 -1847 -5 -1849 -4 -4 3 -39 275 -41 311 0 14 622
16 3109 5z m-9744 -82 c116 -44 209 -56 420 -56 155 0 219 4 285 18 94 20 183
57 217 89 27 25 29 24 38 -23 6 -35 5 -37 -49 -73 -145 -96 -285 -138 -461
-139 -179 0 -353 46 -517 136 -59 32 -63 39 -52 94 l6 29 29 -27 c17 -15 54
-37 84 -48z m11623 -80 l130 -158 52 -589 52 -589 463 -1227 462 -1226 532
-905 c292 -498 531 -912 531 -920 0 -22 -64 -141 -100 -187 l-32 -40 -229 0
c-126 0 -229 2 -229 4 0 2 11 24 25 48 40 72 65 156 65 221 l0 60 -532 861
c-293 474 -540 884 -550 911 -10 28 -191 586 -402 1240 l-384 1190 84 565 c46
311 84 572 84 580 0 8 -52 80 -116 160 -64 80 -118 148 -120 152 -3 5 15 8 39
8 l44 0 131 -159z m-7565 -187 l2348 -6 -7 -47 c-4 -25 -7 -47 -8 -48 -3 -4
-7386 24 -7390 28 -2 2 -7 24 -11 48 l-7 43 1363 -6 c750 -3 2421 -9 3712 -12z
m7553 -15 c-3 -17 -6 -42 -6 -55 l0 -24 -2465 0 -2465 0 0 50 0 50 1238 3
c680 1 1792 3 2471 5 l1234 2 -7 -31z m-4966 -10 c0 -17 -5 -252 -10 -522
l-11 -492 65 -1245 c64 -1220 67 -1263 146 -2123 l80 -879 -20 -174 c-11 -96
-20 -176 -20 -179 0 -3 -51 -5 -113 -5 l-114 0 -16 173 c-34 362 -128 2113
-172 3212 -44 1109 -45 1141 -38 1692 l6 562 91 4 c50 1 99 4 109 5 13 2 17
-5 17 -29z m-7310 -111 c0 -41 47 -742 55 -820 l6 -58 -141 0 c-107 0 -140 3
-140 13 0 7 -25 204 -55 437 -30 234 -55 433 -55 443 0 15 15 17 165 17 l165
0 0 -32z m219 -380 c18 -227 35 -432 38 -455 l6 -43 -86 0 c-82 0 -87 1 -91
23 -3 12 -17 204 -31 427 -14 223 -27 417 -30 433 l-4 27 82 0 83 0 33 -412z
m215 360 c3 -29 10 -192 16 -363 5 -170 13 -352 16 -402 l6 -93 -90 0 -91 0
-5 43 c-3 23 -19 211 -36 417 -16 206 -32 392 -35 413 l-5 37 109 0 110 0 5
-52z m190 0 c5 -55 26 -687 26 -795 l0 -63 -74 0 -75 0 -5 43 c-3 23 -10 184
-16 357 -6 173 -13 359 -16 413 l-7 97 81 0 81 0 5 -52z m195 43 c11 -7 16
-68 22 -313 4 -166 8 -367 8 -445 l1 -143 -85 0 -85 0 0 58 c0 31 -7 230 -15
442 -8 212 -15 391 -15 398 0 14 146 17 169 3z m215 -43 c3 -24 10 -182 16
-353 6 -170 13 -354 16 -407 l7 -98 -96 0 -95 0 -6 273 c-3 149 -9 352 -12
450 l-6 177 85 0 86 0 5 -42z m209 -183 c4 -124 10 -326 14 -450 l6 -225 -81
0 -81 0 -5 53 c-3 28 -10 192 -16 362 -6 171 -13 349 -16 398 l-6 87 89 0 90
0 6 -225z m177 188 c0 -32 14 -501 23 -785 l2 -78 -76 0 -76 0 -6 148 c-4 81
-10 283 -13 450 l-7 302 76 0 77 0 0 -37z m204 -345 c4 -211 9 -413 12 -450
l6 -68 -84 0 -85 0 -6 218 c-4 119 -10 322 -13 450 l-7 232 85 0 85 0 7 -382z
m196 350 c0 -18 7 -199 15 -403 8 -203 15 -391 15 -417 l0 -48 -94 0 -93 0 -7
393 c-4 215 -9 418 -12 450 l-6 57 91 0 91 0 0 -32z m200 -25 c0 -32 7 -213
15 -403 8 -190 15 -366 15 -392 l0 -48 -85 0 c-74 0 -85 2 -85 18 0 9 -7 181
-15 382 -8 201 -15 395 -15 433 l0 67 85 0 85 0 0 -57z m210 -393 l0 -450 -75
0 c-65 0 -75 2 -75 18 0 9 -7 172 -15 362 -8 190 -15 384 -15 433 l0 87 90 0
90 0 0 -450z m200 0 l0 -450 -85 0 -85 0 0 450 0 450 85 0 85 0 0 -450z m203
233 c4 -120 7 -323 7 -450 l0 -233 -90 0 -90 0 0 450 0 450 83 0 84 0 6 -217z
m191 135 c3 -46 8 -248 12 -450 l6 -368 -85 0 -84 0 -6 338 c-4 185 -7 388 -7
450 l0 112 79 0 79 0 6 -82z m196 -225 c0 -170 3 -372 7 -450 l6 -143 -80 0
-81 0 -6 203 c-3 111 -8 313 -11 450 l-6 247 85 0 86 0 0 -307z m250 -143 l0
-450 -110 0 -110 0 0 368 c0 202 -3 404 -7 450 l-6 82 117 0 116 0 0 -450z
m210 0 l0 -450 -90 0 -90 0 0 450 0 450 90 0 90 0 0 -450z m203 193 c4 -141 7
-343 7 -450 l0 -193 -90 0 -90 0 0 450 0 450 83 0 84 0 6 -257z m141 251 l46
-7 0 -443 0 -444 -73 0 -74 0 -6 182 c-4 99 -7 302 -7 450 l0 268 34 0 c18 0
54 -3 80 -6z m3669 -316 c4 -178 7 -383 7 -455 l0 -133 -91 0 -91 0 7 433 c3
237 8 442 11 455 4 20 10 22 78 22 l73 0 6 -322z m305 -95 c7 -230 12 -435 12
-455 l0 -38 -139 0 -138 0 -7 61 c-3 34 -6 239 -6 455 l0 394 133 0 133 0 12
-417z m272 415 c2 -14 29 -790 30 -840 l0 -68 -130 0 -130 0 0 38 c0 58 -19
640 -24 765 l-6 107 130 0 c72 0 130 -1 130 -2z m310 -20 c0 -42 29 -691 35
-790 l7 -98 -146 0 -146 0 0 28 c0 15 -7 207 -15 427 -8 220 -15 412 -15 428
l0 27 140 0 c139 0 140 0 140 -22z m380 20 c4 -55 30 -760 30 -820 l0 -88
-170 0 -169 0 -5 33 c-5 30 -37 776 -36 845 l0 32 175 0 c96 0 175 -1 175 -2z
m320 -46 c0 -53 27 -673 34 -789 l4 -73 -149 0 -149 0 0 58 c0 31 -7 221 -15
422 -8 201 -15 380 -15 398 l0 32 145 0 145 0 0 -48z m283 -89 c18 -393 30
-754 24 -759 -3 -3 -60 -8 -126 -11 l-121 -6 -1 79 c0 43 -8 249 -17 457 l-17
377 126 0 126 0 6 -137z m308 95 c0 -24 10 -226 22 -450 l22 -408 -147 0 -148
0 0 43 c0 23 -7 193 -15 377 -8 184 -15 368 -15 408 l0 72 140 0 140 0 1 -42z
m252 -360 c10 -222 20 -424 23 -450 l6 -48 -106 0 -106 0 0 43 c0 23 -9 202
-20 397 -11 195 -20 379 -20 408 l0 52 103 0 103 0 17 -402z m301 370 c3 -18
12 -206 21 -418 8 -212 17 -400 20 -417 l4 -33 -148 0 -147 0 -17 413 c-10
226 -20 429 -23 450 l-6 37 146 0 145 0 5 -32z m296 15 c0 -10 9 -200 20 -423
11 -223 20 -417 20 -432 l0 -28 -135 0 -135 0 0 51 c0 56 -26 624 -35 762 l-6
87 136 0 c122 0 135 -2 135 -17z m320 -15 c0 -18 9 -215 20 -438 11 -223 20
-411 20 -417 0 -10 -36 -13 -145 -13 -80 0 -145 1 -145 3 -21 418 -40 822 -40
855 l0 42 145 0 145 0 0 -32z m370 12 c0 -29 39 -755 44 -822 l4 -58 -173 0
-173 0 -6 63 c-7 73 -36 720 -36 790 l0 47 170 0 c162 0 170 -1 170 -20z m363
-282 c4 -166 7 -368 7 -450 l0 -148 -150 0 -150 0 0 48 c0 26 -9 209 -20 407
-11 198 -20 379 -20 403 l0 42 163 0 164 0 6 -302z m280 -15 c4 -174 7 -376 7
-450 l0 -133 -123 0 -124 0 -6 278 c-4 152 -7 355 -7 450 l0 172 123 0 124 0
6 -317z m407 307 c0 -10 -116 -804 -125 -857 l-6 -33 -118 0 -118 0 -6 242
c-4 133 -7 335 -7 450 l0 208 190 0 c116 0 190 -4 190 -10z m-8190 -445 l0
-445 -85 0 -85 0 0 445 0 445 85 0 85 0 0 -445z m200 263 c0 -101 3 -301 7
-445 l6 -263 -91 0 -92 0 0 445 0 445 85 0 85 0 0 -182z m200 -263 l0 -445
-85 0 -85 0 0 445 0 445 85 0 85 0 0 -445z m180 0 l0 -445 -75 0 -75 0 0 445
0 445 75 0 75 0 0 -445z m210 0 l0 -445 -90 0 -90 0 0 445 0 445 90 0 90 0 0
-445z m203 308 c4 -75 7 -275 7 -445 l0 -308 -95 0 -95 0 0 445 0 445 88 0 89
0 6 -137z m197 -308 l0 -445 -78 0 -79 0 -6 167 c-4 91 -7 291 -7 445 l0 278
85 0 85 0 0 -445z m180 0 l0 -445 -75 0 -75 0 0 243 c0 133 -3 333 -7 445 l-6
202 81 0 82 0 0 -445z m200 0 l0 -445 -85 0 -85 0 0 445 0 445 85 0 85 0 0
-445z m210 0 l0 -445 -90 0 -90 0 0 445 0 445 90 0 90 0 0 -445z m203 278 c4
-91 7 -291 7 -445 l0 -278 -90 0 -90 0 0 445 0 445 83 0 84 0 6 -167z m177
-278 l0 -445 -68 0 -69 0 -6 263 c-4 144 -7 344 -7 445 l0 182 75 0 75 0 0
-445z m180 0 l0 -445 -75 0 -75 0 0 445 0 445 75 0 75 0 0 -445z m203 188 c4
-141 7 -341 7 -445 l0 -188 -90 0 -90 0 0 445 0 445 83 0 84 0 6 -257z m181
225 c3 -18 8 -163 11 -323 3 -159 8 -345 11 -412 l7 -123 -85 0 -85 0 -6 272
c-4 149 -7 349 -7 445 l0 173 75 0 74 0 5 -32z m180 -70 c4 -51 11 -201 16
-333 5 -132 13 -288 16 -347 l6 -108 -80 0 -80 0 -6 63 c-3 34 -8 190 -11 347
-3 157 -8 327 -11 378 l-6 92 75 0 75 0 6 -92z m86 -335 c0 -236 -4 -434 -9
-442 -6 -9 -11 7 -15 50 -5 55 -36 752 -36 802 0 12 8 17 30 17 l30 0 0 -427z
m-10 -529 l0 -47 -1472 7 c-810 3 -1801 8 -2203 11 -401 3 -1372 8 -2157 11
l-1428 6 0 29 0 29 3630 0 3630 0 0 -46z m5072 11 l-4 -35 -2302 0 c-1265 0
-2345 -3 -2398 -7 l-98 -6 0 36 0 36 118 4 c64 1 1145 4 2402 5 l2286 2 -4
-35z m-12075 -67 c-2 -7 -185 -532 -407 -1165 l-403 -1153 -144 0 c-78 0 -143
2 -143 4 0 5 813 2253 831 2299 l11 27 130 0 c100 0 129 -3 125 -12z m211 -5
c-5 -17 -789 -2259 -804 -2296 -5 -14 -20 -17 -95 -17 -49 0 -89 2 -89 4 0 3
182 525 405 1162 223 636 405 1158 405 1160 0 2 41 4 91 4 82 0 91 -2 87 -17z
m202 9 c0 -4 -182 -527 -404 -1162 l-404 -1155 -87 -3 c-52 -2 -86 1 -83 7 1
5 185 529 408 1165 l404 1156 83 0 c46 0 83 -4 83 -8z m137 -139 c-28 -82
-212 -605 -407 -1163 l-355 -1015 -78 -3 -77 -3 50 143 c27 79 211 603 407
1165 l358 1023 77 0 77 0 -52 -147z m243 139 c0 -4 -182 -527 -404 -1162
l-404 -1155 -85 -3 -84 -3 403 1153 c222 634 406 1159 409 1166 5 13 165 18
165 4z m184 -89 c-19 -54 -202 -577 -407 -1163 l-373 -1065 -91 -3 -92 -3 62
179 c34 98 217 622 407 1165 l345 987 91 0 92 0 -34 -97z m183 -51 c-29 -81
-212 -605 -407 -1165 l-355 -1017 -87 0 -88 0 11 28 c6 15 186 527 400 1139
214 611 393 1123 399 1137 9 25 12 26 94 26 l85 0 -52 -148z m230 136 c-2 -7
-186 -532 -408 -1165 l-403 -1153 -73 0 c-40 0 -73 4 -73 9 0 7 769 2212 805
2309 3 8 29 12 81 12 57 0 75 -3 71 -12z m189 -5 c-4 -10 -188 -534 -409
-1165 l-401 -1148 -78 0 c-43 0 -78 2 -78 5 0 2 174 501 386 1107 213 607 395
1129 406 1161 l20 57 80 0 c72 0 79 -2 74 -17z m211 3 c1 -1 -610 -1750 -768
-2198 l-41 -118 -89 0 c-49 0 -89 3 -89 6 0 4 684 1962 803 2297 l10 29 86 -7
c47 -4 87 -8 88 -9z m199 -13 c-4 -10 -184 -524 -401 -1143 -217 -619 -397
-1133 -401 -1143 -5 -14 -20 -17 -90 -17 -46 0 -84 1 -84 3 0 2 745 2135 805
2305 3 8 31 12 91 12 77 0 85 -2 80 -17z m184 10 c0 -5 -182 -525 -403 -1158
l-403 -1150 -78 -3 c-72 -3 -78 -1 -72 15 4 9 184 524 401 1143 217 619 397
1133 401 1143 5 14 19 17 80 17 41 0 74 -3 74 -7z m200 5 c-1 -9 -809 -2310
-813 -2314 -2 -3 -40 -4 -84 -2 l-79 3 405 1158 405 1157 83 0 c46 0 83 -1 83
-2z m204 -20 c-4 -13 -186 -534 -404 -1158 l-397 -1135 -93 -3 c-85 -3 -92 -1
-85 15 5 14 705 2011 792 2261 l15 42 90 0 c88 0 89 0 82 -22z m206 15 c0 -5
-182 -525 -403 -1158 l-403 -1150 -87 -3 -87 -3 39 108 c21 59 204 582 406
1161 l368 1052 84 0 c46 0 83 -3 83 -7z m-219 -1153 l-406 -1160 -77 0 -77 0
23 63 c13 34 196 556 407 1160 l383 1097 77 0 76 0 -406 -1160z m620 1053
c-21 -60 -204 -582 -406 -1160 l-368 -1053 -110 0 c-99 0 -109 2 -105 18 6 19
780 2231 797 2275 l11 27 109 0 110 0 -38 -107z m244 90 c-5 -14 -706 -2014
-792 -2260 l-15 -43 -89 0 c-49 0 -89 2 -89 4 0 4 783 2244 801 2294 8 21 14
22 100 22 83 0 91 -2 84 -17z m202 5 c-2 -7 -182 -521 -400 -1143 -217 -621
-399 -1138 -402 -1147 -6 -15 -20 -18 -92 -18 -76 0 -84 2 -79 17 4 10 184
524 401 1143 217 619 397 1133 401 1143 5 14 20 17 91 17 64 0 84 -3 80 -12z
m181 -5 c-15 -53 -801 -2289 -807 -2296 -5 -4 -40 -7 -79 -5 l-70 3 364 1040
c200 572 382 1093 405 1158 l41 117 75 0 c67 0 75 -2 71 -17z m188 4 c6 -1
-163 -498 -392 -1152 l-402 -1150 -85 -3 -84 -3 405 1158 405 1158 71 -3 c39
-2 76 -4 82 -5z m3455 -9 c0 -13 44 -534 97 -1158 l97 -1135 -124 -3 c-68 -1
-125 -1 -126 0 -1 2 -28 503 -59 1113 -31 611 -58 1131 -61 1158 l-6 47 91 0
c87 0 90 -1 91 -22z m323 -30 c3 -29 46 -532 96 -1118 49 -586 92 -1084 94
-1107 l6 -43 -150 0 -150 0 0 25 c0 13 -43 526 -95 1139 -52 613 -95 1124 -95
1135 0 20 5 21 144 21 l144 0 6 -52z m280 30 c3 -13 46 -511 96 -1108 50 -597
93 -1109 96 -1138 l6 -53 -128 3 -129 3 -97 1135 c-53 624 -97 1145 -97 1158
-1 22 1 22 124 22 121 0 125 -1 129 -22z m415 -1086 c51 -609 96 -1131 99
-1159 l5 -53 -146 0 -146 0 -5 43 c-4 23 -47 524 -96 1112 -49 589 -93 1091
-96 1118 l-6 47 149 0 148 0 94 -1108z m384 -44 c54 -634 98 -1156 97 -1160 0
-5 -78 -8 -174 -8 l-174 0 -6 58 c-4 31 -47 536 -96 1122 -49 586 -92 1082
-95 1103 l-5 37 178 0 178 0 97 -1152z m227 1134 c0 -10 43 -519 95 -1132 52
-613 95 -1127 95 -1142 l0 -28 -145 0 c-80 0 -145 2 -145 4 0 13 -190 2247
-194 2279 l-4 37 149 0 c137 0 149 -1 149 -18z m284 -39 c4 -32 47 -537 96
-1123 49 -586 92 -1082 95 -1102 l5 -38 -130 0 c-105 0 -130 3 -130 14 0 8
-43 517 -95 1131 -52 614 -95 1129 -95 1146 l0 29 124 0 124 0 6 -57z m320 15
c4 -24 47 -524 96 -1113 49 -588 93 -1091 96 -1117 l6 -48 -149 0 -148 0 -94
1108 c-51 609 -96 1131 -99 1160 l-5 52 146 0 146 0 5 -42z m227 20 c0 -13 44
-534 97 -1158 l97 -1135 -94 -3 c-51 -1 -96 0 -99 3 -4 4 -199 2229 -202 2303
0 9 26 12 100 12 97 0 100 -1 101 -22z m323 -35 c4 -32 47 -535 96 -1118 49
-583 92 -1079 94 -1102 l6 -43 -150 0 c-150 0 -150 0 -150 23 0 13 -43 524
-95 1137 -52 613 -95 1125 -95 1138 0 22 1 22 144 22 l144 0 6 -57z m280 25
c3 -18 46 -517 96 -1108 50 -591 93 -1099 96 -1127 l6 -53 -128 0 -129 0 -94
1108 c-51 609 -96 1131 -99 1160 l-5 52 126 0 126 0 5 -32z m418 -1103 c53
-621 97 -1142 97 -1157 l1 -28 -144 0 -145 0 -5 43 c-4 23 -47 524 -96 1112
-50 589 -93 1091 -96 1118 l-6 48 149 -3 148 -3 97 -1130z m377 33 c51 -607
96 -1129 99 -1160 l5 -58 -176 0 -175 0 -6 58 c-4 31 -47 534 -96 1117 -49
583 -92 1079 -94 1103 l-6 42 178 0 177 0 94 -1102z m231 1082 c0 -10 43 -521
95 -1134 52 -613 95 -1126 95 -1140 l0 -26 -144 0 -144 0 -6 58 c-4 31 -47
536 -96 1122 -49 586 -91 1082 -94 1103 l-4 37 149 0 c141 0 149 -1 149 -20z
m284 -37 c4 -32 47 -537 96 -1123 49 -586 91 -1082 94 -1102 l4 -38 -129 0
c-99 0 -129 3 -129 13 0 7 -43 514 -95 1127 -52 613 -95 1130 -95 1148 l0 32
124 0 124 0 6 -57z m295 -100 l51 -158 80 -960 c44 -528 83 -979 86 -1002 l5
-43 -148 0 -148 0 -94 1103 c-51 606 -96 1128 -99 1160 l-5 57 111 0 111 0 50
-157z m-7904 130 c-3 -10 -184 -526 -402 -1148 -217 -621 -398 -1134 -402
-1138 -5 -4 -46 -7 -94 -5 l-85 3 399 1140 c219 627 401 1146 404 1152 3 9 32
13 96 13 83 0 91 -2 84 -17z m202 5 c-2 -7 -183 -524 -401 -1148 -219 -624
-401 -1139 -405 -1143 -4 -4 -44 -7 -87 -5 l-80 3 403 1150 c221 633 403 1151
403 1153 0 1 39 2 86 2 65 0 85 -3 81 -12z m183 6 c0 -4 -181 -524 -402 -1155
l-402 -1149 -73 0 c-40 0 -73 4 -73 9 0 5 174 506 386 1113 212 606 393 1122
401 1146 l15 42 74 0 c41 0 74 -3 74 -6z m188 -8 c-2 -7 -183 -527 -403 -1155
l-399 -1141 -79 0 c-59 0 -78 3 -75 13 2 6 184 526 403 1155 l399 1142 79 0
c61 0 78 -3 75 -14z m212 5 c0 -4 -180 -523 -400 -1151 -220 -628 -400 -1144
-400 -1146 0 -2 -40 -4 -90 -4 -49 0 -90 3 -90 6 0 3 181 523 402 1155 l402
1149 88 0 c48 0 88 -4 88 -9z m-166 -1058 c-206 -588 -388 -1107 -405 -1155
l-31 -88 -85 0 c-64 0 -84 3 -81 13 3 6 185 526 404 1154 l399 1143 86 0 86 0
-373 -1067z m495 895 c-33 -95 -214 -614 -403 -1153 l-343 -980 -78 -3 c-71
-3 -77 -1 -71 15 4 10 182 518 396 1128 214 611 393 1122 399 1138 10 26 13
27 85 27 l75 0 -60 -172z m240 120 c-11 -29 -192 -547 -403 -1151 -211 -604
-386 -1100 -389 -1103 -2 -3 -40 -4 -84 -2 l-79 3 403 1150 c221 633 403 1151
403 1153 0 1 38 2 84 2 l84 0 -19 -52z m181 -90 c-28 -79 -209 -597 -404
-1153 l-353 -1010 -93 -3 c-85 -3 -92 -1 -86 15 4 10 182 518 396 1128 214
611 393 1122 399 1138 10 27 12 27 100 27 l90 0 -49 -142z m245 125 c-3 -10
-184 -526 -402 -1148 -217 -621 -398 -1134 -402 -1138 -5 -4 -44 -7 -88 -5
l-80 3 399 1140 c219 627 400 1146 403 1153 3 8 31 12 91 12 78 0 85 -2 79
-17z m135 -135 c-27 -79 -209 -596 -402 -1150 l-353 -1008 -77 0 -78 0 11 28
c6 15 186 528 400 1141 215 613 392 1118 395 1123 3 4 39 8 79 8 l75 0 -50
-142z m217 130 c-2 -7 -183 -525 -402 -1150 l-398 -1138 -70 0 c-61 0 -69 2
-65 18 4 12 718 2058 793 2270 3 8 28 12 76 12 53 0 70 -3 66 -12z m213 6 c0
-5 -777 -2228 -796 -2277 -5 -14 -20 -17 -95 -17 -49 0 -89 2 -89 4 0 3 172
494 381 1093 210 598 390 1114 401 1146 l20 57 89 0 c49 0 89 -3 89 -6z m200
-1 c0 -5 -180 -521 -399 -1148 l-399 -1140 -87 -3 c-81 -3 -87 -1 -81 15 4 10
186 528 404 1151 l396 1132 83 0 c46 0 83 -3 83 -7z m147 -110 c-23 -65 -204
-581 -402 -1148 l-360 -1030 -77 -3 -78 -3 50 143 c27 79 209 596 402 1150
l353 1008 76 0 77 0 -41 -117z m97 85 c3 -18 8 -121 11 -229 l7 -196 -342
-909 c-189 -500 -345 -915 -347 -921 -4 -9 -30 -13 -83 -13 l-77 0 396 1133
c218 622 400 1140 404 1150 10 27 26 20 31 -15z m5525 -1369 c154 -476 283
-873 287 -882 6 -16 -13 -17 -220 -17 l-226 0 -4 23 c-6 25 -157 1814 -155
1837 1 21 4 11 318 -961z m-5735 -236 l-249 -663 -93 0 c-54 0 -92 4 -90 9 2
5 152 404 333 886 l330 876 9 -223 8 -223 -248 -662z m243 166 c-13 -41 -73
-244 -133 -451 l-109 -378 -107 0 c-60 0 -108 3 -108 7 0 4 105 286 233 626
l232 619 8 -175 c7 -167 7 -177 -16 -248z m36 -199 l4 -145 -54 -220 c-29
-121 -56 -230 -58 -242 -5 -21 -11 -23 -70 -23 -36 0 -65 3 -65 8 -1 23 225
781 231 775 4 -5 9 -73 12 -153z m19 -503 l3 -127 -54 0 c-46 0 -53 2 -49 18
3 9 22 88 44 176 38 156 39 158 46 110 3 -27 8 -106 10 -177z m5752 -204 c12
-38 139 -253 372 -630 195 -315 354 -575 354 -578 0 -3 -1363 -5 -3029 -5
l-3030 0 -6 53 c-11 97 -105 1149 -105 1178 l0 29 2458 3 c1351 1 2572 3 2713
5 l255 2 18 -57z m-5744 25 c0 -13 16 -295 36 -627 19 -331 33 -605 31 -607
-2 -2 -2043 -3 -4535 -2 l-4532 3 378 582 c244 374 384 598 392 627 l13 46
4108 0 4109 0 0 -22z m69 -1274 c2 -2 10 -104 17 -226 7 -123 21 -312 30 -420
10 -109 16 -199 13 -201 -2 -1 -2130 1 -4728 5 -3595 6 -4728 11 -4738 20 -8
6 -24 30 -36 52 -25 50 -27 149 -3 215 9 24 93 162 188 308 l172 264 4541 -7
c2497 -3 4542 -8 4544 -10z m6591 -261 c91 -146 169 -279 174 -295 13 -40 -15
-142 -61 -231 l-38 -71 -3155 3 c-1735 1 -3157 4 -3159 6 -1 2 6 82 17 178 19
170 19 178 1 378 -10 112 -20 225 -23 252 l-5 47 3042 0 3042 0 165 -267z"/>
<path d="M4914 13139 c-8 -14 11 -33 25 -25 6 4 11 14 11 22 0 16 -26 19 -36
3z"/>
<path d="M4730 12935 c0 -8 9 -15 20 -15 24 0 27 15 4 24 -22 9 -24 8 -24 -9z"/>
<path d="M13160 7315 c-9 -11 -10 -30 -1 -82 20 -119 21 -123 42 -123 10 0 19
-3 19 -7 0 -5 16 -97 37 -205 26 -139 41 -198 50 -198 17 0 18 -16 -23 204
-29 157 -33 194 -23 212 9 18 9 40 0 101 -18 113 -18 113 -55 113 -19 0 -39
-7 -46 -15z"/>
<path d="M15295 7303 c65 -166 84 -227 79 -247 -3 -14 6 -61 20 -110 23 -75
30 -86 49 -86 20 0 27 -12 52 -81 27 -72 47 -101 60 -87 3 2 -10 42 -29 89
-23 60 -30 89 -23 100 7 11 1 42 -19 105 -24 73 -33 90 -51 92 -18 3 -30 25
-68 123 -31 80 -52 119 -62 119 -10 0 -13 -5 -8 -17z"/>
<path d="M12094 7303 c-8 -3 -7 -25 2 -80 10 -59 11 -79 2 -84 -9 -6 -9 -27 1
-91 15 -104 19 -118 35 -118 8 0 19 -40 31 -115 19 -116 28 -145 42 -132 4 5
-2 62 -13 128 -19 114 -19 119 -2 125 21 6 22 19 8 100 -17 98 -20 104 -44
114 -20 7 -25 18 -31 66 -8 70 -16 92 -31 87z"/>
<path d="M12444 7302 c-7 -5 4 -83 33 -231 36 -189 41 -227 30 -238 -12 -12
-11 -28 1 -101 8 -48 20 -93 27 -101 13 -14 70 -8 80 9 7 11 -24 194 -33 198
-30 11 -38 37 -78 242 -24 122 -45 224 -46 226 -2 1 -8 0 -14 -4z"/>
<path d="M13885 7297 c-4 -8 15 -97 41 -197 37 -147 44 -184 33 -191 -11 -6
-11 -18 -1 -66 22 -107 33 -135 53 -140 10 -3 19 -9 19 -14 0 -21 26 -6 39 21
11 27 10 42 -9 120 -18 74 -26 90 -41 90 -11 0 -19 2 -19 4 0 12 -99 379 -104
383 -3 3 -8 -1 -11 -10z"/>
<path d="M16743 7304 c-7 -3 17 -64 67 -167 57 -118 76 -166 69 -179 -13 -25
64 -188 89 -188 12 0 25 -14 37 -40 10 -22 24 -40 32 -40 17 0 17 14 -2 49 -8
16 -12 43 -10 62 7 46 -60 183 -91 187 -16 2 -39 39 -99 162 -42 88 -78 160
-79 159 0 0 -6 -3 -13 -5z"/>
<path d="M11370 7276 c0 -13 -7 -27 -16 -30 -25 -9 -10 -184 18 -208 16 -15
22 -41 34 -160 7 -79 14 -155 14 -170 0 -18 5 -28 15 -28 18 0 18 -10 0 184
-14 144 -14 160 0 176 24 26 10 196 -16 211 -11 5 -19 19 -19 29 0 11 -7 20
-15 20 -9 0 -15 -9 -15 -24z"/>
<path d="M11735 7273 c3 -16 12 -84 20 -152 13 -110 13 -126 0 -141 -12 -14
-14 -32 -6 -102 9 -92 14 -108 37 -108 10 0 14 -12 14 -40 0 -30 4 -40 16 -40
12 0 14 9 12 38 -2 23 2 41 11 48 11 8 12 31 6 109 -6 83 -10 98 -25 102 -21
6 -25 19 -40 153 -16 145 -20 160 -35 160 -10 0 -13 -8 -10 -27z"/>
<path d="M13506 7291 c-3 -4 4 -36 15 -71 18 -51 19 -66 9 -84 -17 -33 33
-194 64 -206 16 -6 30 -35 60 -134 21 -69 43 -126 47 -126 19 0 15 24 -21 140
-26 82 -36 128 -30 134 15 15 12 38 -15 125 -20 61 -30 81 -44 81 -13 0 -23
19 -41 75 -22 71 -32 86 -44 66z"/>
<path d="M14210 7298 c-11 -55 -5 -114 18 -183 22 -64 31 -80 47 -80 17 0 31
-29 88 -180 38 -99 70 -182 73 -184 2 -3 8 0 13 5 6 5 -18 81 -58 189 -50 132
-65 184 -58 196 7 11 1 42 -19 105 -25 77 -32 89 -51 88 -15 0 -24 7 -28 23
-3 13 -10 23 -15 23 -6 0 -10 -1 -10 -2z"/>
<path d="M14580 7286 c0 -8 16 -59 34 -112 27 -75 33 -100 24 -114 -8 -13 -7
-34 5 -83 26 -101 34 -117 59 -117 20 0 27 -13 57 -95 18 -52 36 -95 40 -95
20 0 18 18 -10 93 -16 44 -31 106 -33 136 -4 82 -33 171 -59 180 -15 6 -31 35
-58 112 -33 93 -59 135 -59 95z"/>
<path d="M14930 7287 c0 -7 31 -89 70 -181 58 -139 68 -170 58 -186 -17 -27
48 -180 85 -198 15 -7 27 -17 27 -23 0 -5 7 -9 15 -9 18 0 18 5 5 31 -6 11 -7
19 -1 19 22 0 17 34 -15 112 -40 94 -37 89 -60 92 -12 2 -38 53 -89 176 -64
155 -95 210 -95 167z"/>
<path d="M12780 7275 c0 -9 9 -53 21 -98 16 -66 18 -85 8 -103 -17 -32 24
-201 52 -209 19 -6 20 -10 39 -85 29 -117 31 -123 42 -112 7 7 4 38 -11 101
-16 72 -18 96 -9 110 18 30 -21 193 -49 206 -17 7 -27 30 -45 104 -13 52 -29
96 -36 99 -7 2 -12 -4 -12 -13z"/>
<path d="M15652 7273 c-6 -3 -10 -9 -7 -13 3 -5 0 -18 -6 -28 -10 -17 -6 -34
26 -106 22 -47 43 -87 47 -87 4 -1 13 -2 20 -3 9 -1 131 -250 181 -371 3 -7 8
-6 16 0 8 8 -12 61 -73 195 -68 149 -82 187 -73 201 15 25 -60 192 -88 198
-11 2 -22 7 -25 11 -3 4 -11 5 -18 3z"/>
<path d="M16010 7273 c0 -5 33 -82 74 -172 57 -128 71 -169 63 -182 -8 -12 -2
-35 23 -95 37 -91 46 -104 70 -104 10 0 21 -7 24 -16 3 -8 11 -12 17 -9 6 4 8
14 5 22 -4 9 -1 22 5 29 9 11 3 34 -26 104 -35 84 -43 94 -70 91 -5 0 -43 76
-84 169 -42 96 -81 170 -88 170 -7 0 -13 -3 -13 -7z"/>
<path d="M16365 7270 c-3 -5 6 -32 20 -60 20 -39 23 -55 15 -65 -8 -10 -1 -33
31 -97 43 -86 55 -101 76 -93 7 2 41 -52 85 -136 40 -76 78 -139 85 -139 7 0
13 3 13 7 0 3 -32 66 -70 139 -53 100 -69 139 -64 158 8 34 -70 186 -96 186
-12 0 -30 20 -50 55 -33 58 -35 60 -45 45z"/>
<path d="M3248 7293 c-9 -10 -34 -48 -57 -85 -36 -57 -40 -70 -30 -86 10 -17
-3 -45 -99 -213 -125 -220 -130 -229 -110 -229 7 0 65 90 127 201 78 137 121
203 136 209 24 9 115 146 115 173 0 9 -13 23 -30 32 -36 19 -34 19 -52 -2z"/>
<path d="M5042 7289 c-5 -13 -42 -116 -83 -228 -58 -161 -79 -205 -96 -211
-20 -8 -29 -28 -74 -153 -13 -36 -12 -40 6 -53 10 -8 31 -14 46 -14 25 0 30 7
58 86 34 93 37 110 19 116 -7 3 18 84 72 231 62 169 80 231 72 239 -8 8 -14 5
-20 -13z"/>
<path d="M5397 7279 c-7 -19 -30 -81 -51 -139 -41 -117 -43 -121 -70 -135 -11
-7 -32 -46 -49 -94 -25 -68 -28 -87 -19 -102 10 -15 8 -29 -7 -69 -12 -30 -15
-52 -9 -56 14 -9 21 2 39 54 11 33 22 48 36 50 29 4 91 175 73 198 -11 12 -3
41 40 160 36 102 49 149 42 156 -7 7 -15 0 -25 -23z"/>
<path d="M7540 7248 c-33 -173 -51 -236 -69 -241 -30 -8 -68 -207 -40 -207 11
0 8 -31 -8 -97 -3 -16 -1 -23 9 -23 10 0 19 19 27 55 8 34 18 55 26 55 19 0
22 6 43 103 17 74 18 89 6 106 -13 17 -10 37 16 155 35 156 35 156 16 156 -9
0 -18 -22 -26 -62z"/>
<path d="M5745 7220 c-20 -61 -31 -80 -45 -80 -13 0 -24 -14 -36 -47 -9 -27
-23 -63 -31 -82 -16 -41 -17 -68 -1 -73 8 -3 -2 -42 -30 -122 -46 -129 -48
-136 -29 -136 6 0 30 51 52 116 30 87 45 118 61 124 14 6 31 35 53 95 28 73
31 91 22 109 -10 18 -8 34 13 91 14 38 23 72 20 77 -12 20 -24 3 -49 -72z"/>
<path d="M8577 7293 c-3 -5 -13 -79 -23 -165 -12 -112 -21 -158 -30 -158 -20
0 -24 -13 -36 -111 -10 -83 -9 -94 6 -105 13 -9 16 -20 11 -48 -6 -28 -4 -36
8 -36 9 0 17 14 21 40 4 24 12 40 20 40 20 0 24 18 32 120 6 73 4 91 -7 95
-13 5 -12 26 3 153 9 81 17 155 18 165 0 17 -15 24 -23 10z"/>
<path d="M9370 7277 c0 -16 -7 -26 -18 -29 -15 -4 -21 -23 -32 -98 -11 -86
-11 -95 5 -106 17 -12 17 -23 6 -151 -7 -76 -15 -155 -18 -175 -4 -31 -2 -38
11 -38 9 0 16 5 16 11 0 6 7 83 16 171 12 124 20 164 33 177 11 11 22 48 30
105 12 89 10 106 -14 106 -9 0 -14 8 -12 21 1 12 -4 24 -10 26 -8 3 -13 -5
-13 -20z"/>
<path d="M9787 7293 c-2 -5 -8 -57 -11 -117 -6 -87 -11 -112 -26 -125 -26 -23
-39 -198 -15 -207 12 -5 15 -23 15 -80 0 -41 4 -74 9 -74 12 0 21 37 21 90 0
33 5 48 19 57 27 17 40 187 15 214 -14 16 -15 33 -9 134 5 77 4 115 -3 115 -6
0 -13 -3 -15 -7z"/>
<path d="M3575 7195 c-33 -62 -56 -95 -67 -95 -23 0 -100 -147 -94 -180 3 -16
-13 -59 -46 -125 -54 -107 -55 -108 -40 -113 6 -2 34 42 62 97 38 72 58 101
74 103 39 6 133 198 96 198 -6 0 12 44 39 99 45 88 51 111 32 111 -3 0 -28
-43 -56 -95z"/>
<path d="M6462 7223 c-11 -38 -33 -112 -49 -165 -22 -76 -32 -98 -47 -100 -27
-4 -76 -170 -58 -198 6 -11 9 -33 6 -50 -8 -39 13 -41 27 -1 6 16 18 31 28 34
17 4 27 29 67 168 3 9 -2 23 -9 31 -12 12 -7 37 33 175 26 89 45 165 42 168
-13 13 -21 1 -40 -62z"/>
<path d="M6801 7237 c-23 -103 -31 -125 -50 -130 -14 -3 -24 -27 -42 -102 -21
-88 -22 -98 -7 -106 14 -8 14 -17 -8 -101 -13 -51 -24 -94 -24 -95 0 -2 7 -3
15 -3 14 0 24 26 46 127 7 31 18 53 25 53 19 0 29 23 50 113 14 63 16 82 6 98
-10 16 -8 34 8 98 24 94 24 101 7 101 -8 0 -19 -21 -26 -53z"/>
<path d="M7171 7246 c-7 -28 -17 -45 -29 -48 -28 -8 -70 -179 -52 -213 11 -20
8 -42 -19 -149 -35 -143 -36 -146 -18 -146 9 0 24 47 46 140 23 96 37 140 47
140 19 0 29 23 50 113 15 64 16 82 6 98 -7 11 -11 28 -8 37 15 59 16 72 2 72
-8 0 -18 -18 -25 -44z"/>
<path d="M8160 7283 c0 -5 -7 -66 -15 -138 -8 -71 -15 -131 -15 -132 0 -2 -6
-3 -14 -3 -20 0 -24 -18 -32 -120 -6 -73 -4 -91 8 -95 11 -4 13 -19 10 -65 -3
-37 0 -60 6 -60 14 0 22 25 22 70 0 27 6 41 21 52 17 11 23 30 31 108 9 83 8
95 -6 106 -15 11 -16 23 -3 140 14 129 14 144 -4 144 -5 0 -9 -3 -9 -7z"/>
<path d="M8366 7273 c-2 -10 -8 -46 -11 -80 -5 -47 -11 -62 -24 -66 -14 -3
-20 -23 -30 -97 -10 -82 -10 -95 4 -110 14 -16 15 -30 4 -124 -12 -100 -8
-137 10 -107 5 7 12 47 15 89 10 107 16 130 35 135 25 6 46 184 24 208 -11 13
-13 33 -7 93 5 52 3 76 -4 76 -6 0 -13 -8 -16 -17z"/>
<path d="M2546 7255 c-9 -14 -21 -23 -27 -19 -15 9 -34 -11 -84 -92 -38 -60
-45 -77 -35 -89 10 -12 -9 -47 -99 -191 -61 -96 -113 -180 -114 -186 -1 -6 3
-12 9 -14 5 -3 61 77 123 176 83 132 118 180 132 180 14 0 35 25 69 78 48 74
61 112 40 112 -6 0 -3 11 6 26 11 17 14 28 7 35 -7 7 -16 1 -27 -16z"/>
<path d="M3964 7238 c-10 -22 -28 -44 -41 -49 -28 -11 -104 -157 -97 -187 4
-13 -21 -72 -70 -168 -46 -92 -71 -153 -66 -158 12 -12 5 -24 95 150 64 124
81 150 99 150 17 -1 30 16 65 83 37 72 42 86 31 106 -10 18 -8 29 9 63 16 32
18 41 7 45 -9 4 -20 -9 -32 -35z"/>
<path d="M4305 7223 c-14 -32 -47 -104 -72 -160 -31 -69 -52 -103 -62 -103
-10 0 -33 -32 -61 -85 -39 -73 -43 -87 -33 -104 10 -17 9 -28 -6 -65 -15 -34
-17 -46 -7 -49 8 -3 21 12 34 39 12 24 28 44 36 44 9 0 35 38 61 88 39 75 44
90 34 109 -10 19 -3 42 56 170 84 186 80 173 62 173 -9 0 -27 -24 -42 -57z"/>
<path d="M4675 7225 c-14 -30 -31 -55 -39 -55 -16 0 -96 -141 -96 -169 0 -9 5
-22 11 -28 7 -7 -8 -51 -50 -146 -35 -82 -55 -139 -49 -143 15 -9 20 0 79 138
32 74 61 128 70 131 19 5 99 146 99 174 0 10 -5 24 -10 29 -7 7 -4 24 9 55 23
50 26 69 10 69 -5 0 -21 -25 -34 -55z"/>
<path d="M6104 7270 c-14 -6 -30 -35 -54 -101 -30 -84 -31 -93 -17 -104 15
-11 11 -30 -42 -196 -36 -111 -56 -188 -50 -193 5 -5 11 -8 13 -5 3 3 31 86
63 185 42 134 62 183 77 190 11 5 30 38 47 84 29 79 36 120 19 120 -5 0 -10 7
-10 15 0 17 -14 18 -46 5z"/>
<path d="M9180 7273 c0 -5 -5 -52 -10 -106 -7 -77 -14 -102 -29 -115 -27 -24
-40 -199 -15 -209 13 -5 15 -20 12 -91 -2 -57 1 -86 8 -89 7 -2 14 25 19 79 5
62 11 85 25 95 26 18 39 187 15 212 -13 15 -15 33 -10 102 4 46 8 94 11 107 3
15 0 22 -11 22 -8 0 -15 -3 -15 -7z"/>
<path d="M9570 7251 c0 -19 -6 -30 -18 -33 -21 -6 -32 -60 -32 -155 0 -46 3
-56 19 -60 18 -5 19 -14 15 -146 -3 -78 -6 -152 -8 -164 -2 -12 2 -24 9 -27
15 -6 25 78 25 217 0 79 3 104 16 119 25 26 33 205 11 214 -12 4 -15 14 -10
35 4 22 2 29 -11 29 -11 0 -16 -9 -16 -29z"/>
<path d="M2835 7131 c-61 -99 -92 -141 -107 -143 -31 -4 -122 -152 -109 -176
7 -13 2 -30 -20 -65 -16 -26 -29 -51 -29 -57 0 -24 23 -6 52 40 21 34 38 50
52 50 15 0 34 21 69 76 48 77 54 93 38 110 -5 5 27 66 80 153 49 78 89 145 89
147 0 2 -6 4 -14 4 -8 0 -54 -63 -101 -139z"/>
<path d="M7888 7252 c-3 -10 -18 -103 -34 -206 -26 -170 -31 -190 -51 -199
-18 -8 -23 -21 -29 -76 -14 -128 -13 -134 23 -144 48 -14 60 2 68 86 3 40 9
79 11 88 3 9 -2 24 -10 32 -14 13 -12 36 14 203 17 104 32 199 35 212 7 27
-20 31 -27 4z"/>
<path d="M8775 7210 c-5 -35 -12 -51 -25 -55 -15 -5 -20 -21 -25 -83 -4 -42
-9 -84 -11 -93 -3 -9 3 -24 12 -33 15 -15 15 -28 4 -132 -7 -63 -10 -118 -6
-121 15 -15 24 18 35 121 10 84 16 112 31 125 14 12 22 40 29 106 10 80 9 91
-5 102 -13 10 -16 23 -11 63 5 38 3 50 -8 50 -8 0 -16 -18 -20 -50z"/>
<path d="M8950 7073 c-11 -160 -15 -189 -31 -202 -15 -13 -20 -36 -25 -113
l-7 -97 37 -7 c21 -3 42 -2 47 3 11 11 32 181 25 200 -3 7 -11 13 -18 13 -11
0 -11 30 -1 168 15 220 15 222 -1 222 -10 0 -16 -43 -26 -187z"/>
</g>
</svg>
